<mxfile host="app.diagrams.net" modified="2024-06-26T14:09:22.976Z" agent="Mozilla/5.0 (Windows NT 10.0; Win64; x64) AppleWebKit/537.36 (KHTML, like Gecko) Chrome/126.0.0.0 Safari/537.36" etag="PkVH3dCFRhJy1SwCrc3l" version="24.5.4" type="device">
  <diagram id="C5RBs43oDa-KdzZeNtuy" name="Page-1">
    <mxGraphModel dx="880" dy="500" grid="1" gridSize="10" guides="1" tooltips="1" connect="1" arrows="1" fold="1" page="1" pageScale="1" pageWidth="827" pageHeight="3000" math="0" shadow="0">
      <root>
        <mxCell id="WIyWlLk6GJQsqaUBKTNV-0" />
        <mxCell id="WIyWlLk6GJQsqaUBKTNV-1" parent="WIyWlLk6GJQsqaUBKTNV-0" />
        <mxCell id="ynSScAyT_oTB8Sbhrg9Q-1" style="edgeStyle=orthogonalEdgeStyle;rounded=0;orthogonalLoop=1;jettySize=auto;html=1;exitX=0.5;exitY=1;exitDx=0;exitDy=0;entryX=0.5;entryY=0;entryDx=0;entryDy=0;" edge="1" parent="WIyWlLk6GJQsqaUBKTNV-1" source="WIyWlLk6GJQsqaUBKTNV-3" target="WIyWlLk6GJQsqaUBKTNV-11">
          <mxGeometry relative="1" as="geometry" />
        </mxCell>
        <mxCell id="WIyWlLk6GJQsqaUBKTNV-3" value="&lt;div style=&quot;color: #000000;background-color: #ffffff;font-family: Consolas, &#39;Courier New&#39;, monospace;font-weight: normal;font-size: 14px;line-height: 19px;white-space: pre;&quot;&gt;&lt;div&gt;&lt;span style=&quot;color: #0000ff;&quot;&gt;CREATE&lt;/span&gt;&lt;span style=&quot;color: #000000;&quot;&gt; &lt;/span&gt;&lt;span style=&quot;color: #0000ff;&quot;&gt;OR&lt;/span&gt;&lt;span style=&quot;color: #000000;&quot;&gt; &lt;/span&gt;&lt;span style=&quot;color: #0000ff;&quot;&gt;REPLACE&lt;/span&gt;&lt;span style=&quot;color: #000000;&quot;&gt; PACKAGE BODY GE_PLN_TRANSFORMATION_CALL &lt;/span&gt;&lt;span style=&quot;color: #0000ff;&quot;&gt;AS&lt;/span&gt;&lt;/div&gt;&lt;/div&gt;" style="rounded=1;whiteSpace=wrap;html=1;fontSize=12;glass=0;strokeWidth=1;shadow=0;" parent="WIyWlLk6GJQsqaUBKTNV-1" vertex="1">
          <mxGeometry x="177.5" y="60" width="485" height="20" as="geometry" />
        </mxCell>
        <mxCell id="ynSScAyT_oTB8Sbhrg9Q-4" style="edgeStyle=orthogonalEdgeStyle;rounded=0;orthogonalLoop=1;jettySize=auto;html=1;exitX=0.5;exitY=1;exitDx=0;exitDy=0;entryX=0.5;entryY=0;entryDx=0;entryDy=0;" edge="1" parent="WIyWlLk6GJQsqaUBKTNV-1" source="WIyWlLk6GJQsqaUBKTNV-11" target="ynSScAyT_oTB8Sbhrg9Q-2">
          <mxGeometry relative="1" as="geometry" />
        </mxCell>
        <mxCell id="WIyWlLk6GJQsqaUBKTNV-11" value="Declare Variables" style="rounded=1;whiteSpace=wrap;html=1;fontSize=12;glass=0;strokeWidth=1;shadow=0;" parent="WIyWlLk6GJQsqaUBKTNV-1" vertex="1">
          <mxGeometry x="360" y="110" width="120" height="30" as="geometry" />
        </mxCell>
        <mxCell id="ynSScAyT_oTB8Sbhrg9Q-5" style="edgeStyle=orthogonalEdgeStyle;rounded=0;orthogonalLoop=1;jettySize=auto;html=1;exitX=0.5;exitY=1;exitDx=0;exitDy=0;entryX=0.5;entryY=0;entryDx=0;entryDy=0;" edge="1" parent="WIyWlLk6GJQsqaUBKTNV-1" source="ynSScAyT_oTB8Sbhrg9Q-2" target="ynSScAyT_oTB8Sbhrg9Q-3">
          <mxGeometry relative="1" as="geometry" />
        </mxCell>
        <mxCell id="ynSScAyT_oTB8Sbhrg9Q-2" value="&lt;div style=&quot;background-color: rgb(255, 255, 255); font-family: Consolas, &amp;quot;Courier New&amp;quot;, monospace; font-size: 14px; line-height: 19px; white-space: pre;&quot;&gt;&lt;div&gt;&lt;span style=&quot;color: #0000ff;&quot;&gt;PROCEDURE&lt;/span&gt; GE_PLN_TRANSFORMATION_FLOW(p_activity_name &lt;span style=&quot;color: #0000ff;&quot;&gt;IN&lt;/span&gt; &lt;span style=&quot;color: #0000ff;&quot;&gt;VARCHAR2&lt;/span&gt;,&lt;/div&gt;&lt;div&gt;&amp;nbsp; &amp;nbsp; &amp;nbsp; &amp;nbsp; &amp;nbsp; &amp;nbsp; &amp;nbsp; &amp;nbsp; &amp;nbsp; &amp;nbsp; &amp;nbsp; &amp;nbsp; &amp;nbsp; &amp;nbsp; &amp;nbsp; &amp;nbsp; &amp;nbsp; &amp;nbsp; &amp;nbsp; &amp;nbsp;p_status &amp;nbsp; &amp;nbsp; &amp;nbsp; &amp;nbsp;&lt;span style=&quot;color: #0000ff;&quot;&gt;OUT&lt;/span&gt; &lt;span style=&quot;color: #0000ff;&quot;&gt;VARCHAR2&lt;/span&gt;,&lt;/div&gt;&lt;div&gt;&amp;nbsp; &amp;nbsp; &amp;nbsp; &amp;nbsp; &amp;nbsp; &amp;nbsp; &amp;nbsp; &amp;nbsp; &amp;nbsp; &amp;nbsp; &amp;nbsp; &amp;nbsp; &amp;nbsp; &amp;nbsp; &amp;nbsp; &amp;nbsp; &amp;nbsp; &amp;nbsp; &amp;nbsp; &amp;nbsp;p_message &amp;nbsp; &amp;nbsp; &amp;nbsp; &lt;span style=&quot;color: #0000ff;&quot;&gt;OUT&lt;/span&gt; &lt;span style=&quot;color: #0000ff;&quot;&gt;VARCHAR2&lt;/span&gt;) &lt;span style=&quot;color: rgb(0, 0, 255);&quot;&gt;IS&lt;/span&gt;&lt;/div&gt;&lt;/div&gt;" style="rounded=1;whiteSpace=wrap;html=1;" vertex="1" parent="WIyWlLk6GJQsqaUBKTNV-1">
          <mxGeometry x="140" y="180" width="560" height="60" as="geometry" />
        </mxCell>
        <mxCell id="ynSScAyT_oTB8Sbhrg9Q-7" style="edgeStyle=orthogonalEdgeStyle;rounded=0;orthogonalLoop=1;jettySize=auto;html=1;exitX=0.5;exitY=1;exitDx=0;exitDy=0;entryX=0.5;entryY=0;entryDx=0;entryDy=0;" edge="1" parent="WIyWlLk6GJQsqaUBKTNV-1" source="ynSScAyT_oTB8Sbhrg9Q-3" target="ynSScAyT_oTB8Sbhrg9Q-6">
          <mxGeometry relative="1" as="geometry" />
        </mxCell>
        <mxCell id="ynSScAyT_oTB8Sbhrg9Q-3" value="&lt;div style=&quot;background-color: rgb(255, 255, 255); font-family: Consolas, &amp;quot;Courier New&amp;quot;, monospace; font-size: 14px; line-height: 19px; white-space: pre;&quot;&gt;&lt;span style=&quot;color: #0000ff;&quot;&gt;CURSOR&lt;/span&gt; total_data_stream(p_activity_name &lt;span style=&quot;color: #0000ff;&quot;&gt;varchar2&lt;/span&gt;) &lt;span style=&quot;color: #0000ff;&quot;&gt;IS&lt;/span&gt;&lt;/div&gt;&lt;div style=&quot;background-color: rgb(255, 255, 255); font-family: Consolas, &amp;quot;Courier New&amp;quot;, monospace; font-size: 14px; line-height: 19px; white-space: pre;&quot;&gt;&lt;span style=&quot;color: #0000ff;&quot;&gt;&lt;br&gt;&lt;/span&gt;&lt;/div&gt;&lt;div style=&quot;background-color: rgb(255, 255, 255); font-family: Consolas, &amp;quot;Courier New&amp;quot;, monospace; line-height: 19px; white-space: pre; font-size: 13px;&quot;&gt;&lt;span style=&quot;color: rgba(0, 0, 0, 0.894); font-family: SegoeUIVariable, SegoeUI, &amp;quot;Segoe UI&amp;quot;, &amp;quot;Helvetica Neue&amp;quot;, Helvetica, &amp;quot;Microsoft YaHei&amp;quot;, &amp;quot;Meiryo UI&amp;quot;, Meiryo, &amp;quot;Arial Unicode MS&amp;quot;, sans-serif; font-size: 14px; text-align: left; white-space: normal; background-color: rgb(243, 243, 243);&quot;&gt;The provided SQL query retrieves the&amp;nbsp;&lt;/span&gt;&lt;code style=&quot;text-wrap: wrap; font-size: 14px; line-height: var(--cib-type-body1-line-height); font-variation-settings: var(--cib-type-body1-font-variation-settings); margin: 0px 2px; padding: 1px 4px; box-sizing: border-box; border: 1px solid var(--cib-color-stroke-neutral-primary); border-radius: var(--cib-border-radius-medium); background: var(--cib-color-syntax-background-surface); color: rgba(0, 0, 0, 0.894); text-align: left;&quot;&gt;DATA_STREAM&lt;/code&gt;&lt;span style=&quot;color: rgba(0, 0, 0, 0.894); font-family: SegoeUIVariable, SegoeUI, &amp;quot;Segoe UI&amp;quot;, &amp;quot;Helvetica Neue&amp;quot;, Helvetica, &amp;quot;Microsoft YaHei&amp;quot;, &amp;quot;Meiryo UI&amp;quot;, Meiryo, &amp;quot;Arial Unicode MS&amp;quot;, sans-serif; font-size: 14px; text-align: left; white-space: normal; background-color: rgb(243, 243, 243);&quot;&gt;&amp;nbsp;from the&amp;nbsp;&lt;/span&gt;&lt;code style=&quot;text-wrap: wrap; font-size: 14px; line-height: var(--cib-type-body1-line-height); font-variation-settings: var(--cib-type-body1-font-variation-settings); margin: 0px 2px; padding: 1px 4px; box-sizing: border-box; border: 1px solid var(--cib-color-stroke-neutral-primary); border-radius: var(--cib-border-radius-medium); background: var(--cib-color-syntax-background-surface); color: rgba(0, 0, 0, 0.894); text-align: left;&quot;&gt;GE_SPM_RULE_HEADERS_ALL&lt;/code&gt;&lt;span style=&quot;color: rgba(0, 0, 0, 0.894); font-family: SegoeUIVariable, SegoeUI, &amp;quot;Segoe UI&amp;quot;, &amp;quot;Helvetica Neue&amp;quot;, Helvetica, &amp;quot;Microsoft YaHei&amp;quot;, &amp;quot;Meiryo UI&amp;quot;, Meiryo, &amp;quot;Arial Unicode MS&amp;quot;, sans-serif; font-size: 14px; text-align: left; white-space: normal; background-color: rgb(243, 243, 243);&quot;&gt;&amp;nbsp;table based on the specified conditions.&amp;nbsp;&lt;/span&gt;&lt;a style=&quot;position: relative; border-bottom: 2px solid transparent; text-decoration-style: dotted; text-underline-offset: 3px; text-decoration-color: var(--cib-color-foreground-accent-secondary); cursor: pointer; background: var(--cib-color-fill-subtle-tertiary); border-radius: var(--cib-border-radius-small); font-family: SegoeUIVariable, SegoeUI, &amp;quot;Segoe UI&amp;quot;, &amp;quot;Helvetica Neue&amp;quot;, Helvetica, &amp;quot;Microsoft YaHei&amp;quot;, &amp;quot;Meiryo UI&amp;quot;, Meiryo, &amp;quot;Arial Unicode MS&amp;quot;, sans-serif; font-size: 14px; text-align: left; white-space: normal;&quot; target=&quot;_blank&quot; data-citationid=&quot;fa12c955-d1f7-9592-a2a9-dfe4369388e4-8-group&quot; class=&quot;tooltip-target&quot; href=&quot;https://docs.oracle.com/en/cloud/saas/supply-chain-and-manufacturing/23d/oedsc/dooheadersall-12076.html&quot;&gt;It filters records where&amp;nbsp;&lt;code style=&quot;white-space-collapse: preserve; font-size: var(--cib-type-body1-font-size); line-height: var(--cib-type-body1-line-height); font-variation-settings: var(--cib-type-body1-font-variation-settings); margin: 0px 2px; padding: 1px 4px; box-sizing: border-box; border: 1px solid var(--cib-color-stroke-neutral-primary); border-radius: var(--cib-border-radius-medium); background: var(--cib-color-syntax-background-surface);&quot;&gt;ACTIVITY_NAME&lt;/code&gt;&amp;nbsp;matches the value of&amp;nbsp;&lt;code style=&quot;white-space-collapse: preserve; font-size: var(--cib-type-body1-font-size); line-height: var(--cib-type-body1-line-height); font-variation-settings: var(--cib-type-body1-font-variation-settings); margin: 0px 2px; padding: 1px 4px; box-sizing: border-box; border: 1px solid var(--cib-color-stroke-neutral-primary); border-radius: var(--cib-border-radius-medium); background: var(--cib-color-syntax-background-surface);&quot;&gt;p_activity_name&lt;/code&gt;,&amp;nbsp;&lt;code style=&quot;white-space-collapse: preserve; font-size: var(--cib-type-body1-font-size); line-height: var(--cib-type-body1-line-height); font-variation-settings: var(--cib-type-body1-font-variation-settings); margin: 0px 2px; padding: 1px 4px; box-sizing: border-box; border: 1px solid var(--cib-color-stroke-neutral-primary); border-radius: var(--cib-border-radius-medium); background: var(--cib-color-syntax-background-surface);&quot;&gt;enable_flag&lt;/code&gt;&amp;nbsp;is ‘Y’, and then orders the results by&amp;nbsp;&lt;code style=&quot;white-space-collapse: preserve; font-size: var(--cib-type-body1-font-size); line-height: var(--cib-type-body1-line-height); font-variation-settings: var(--cib-type-body1-font-variation-settings); margin: 0px 2px; padding: 1px 4px; box-sizing: border-box; border: 1px solid var(--cib-color-stroke-neutral-primary); border-radius: var(--cib-border-radius-medium); background: var(--cib-color-syntax-background-surface);&quot;&gt;DATASTREAM_WEIGHTAGE&lt;/code&gt;&lt;/a&gt;&lt;span style=&quot;color: #0000ff;&quot;&gt;&lt;br&gt;&lt;/span&gt;&lt;/div&gt;" style="rounded=1;whiteSpace=wrap;html=1;" vertex="1" parent="WIyWlLk6GJQsqaUBKTNV-1">
          <mxGeometry x="126" y="280" width="588" height="140" as="geometry" />
        </mxCell>
        <mxCell id="ynSScAyT_oTB8Sbhrg9Q-6" value="&lt;div style=&quot;background-color: rgb(255, 255, 255); font-family: Consolas, &amp;quot;Courier New&amp;quot;, monospace; font-size: 14px; line-height: 19px; white-space: pre;&quot;&gt;&lt;span style=&quot;color: #0000ff;&quot;&gt;CURSOR&lt;/span&gt; total_spm_enable_stream(p_activity_name &lt;span style=&quot;color: #0000ff;&quot;&gt;varchar2&lt;/span&gt;) &lt;span style=&quot;color: #0000ff;&quot;&gt;IS&lt;/span&gt;&lt;/div&gt;&lt;div style=&quot;background-color: rgb(255, 255, 255); font-family: Consolas, &amp;quot;Courier New&amp;quot;, monospace; font-size: 14px; line-height: 19px; white-space: pre;&quot;&gt;&lt;span style=&quot;color: #0000ff;&quot;&gt;&lt;br&gt;&lt;/span&gt;&lt;/div&gt;&lt;div style=&quot;background-color: rgb(255, 255, 255); font-family: Consolas, &amp;quot;Courier New&amp;quot;, monospace; font-size: 14px; line-height: 19px; white-space: pre;&quot;&gt;&lt;span style=&quot;color: rgba(0, 0, 0, 0.894); font-family: SegoeUIVariable, SegoeUI, &amp;quot;Segoe UI&amp;quot;, &amp;quot;Helvetica Neue&amp;quot;, Helvetica, &amp;quot;Microsoft YaHei&amp;quot;, &amp;quot;Meiryo UI&amp;quot;, Meiryo, &amp;quot;Arial Unicode MS&amp;quot;, sans-serif; text-align: left; white-space: normal; background-color: rgb(243, 243, 243);&quot;&gt;The provided SQL query retrieves the&amp;nbsp;&lt;/span&gt;&lt;code style=&quot;text-wrap: wrap; line-height: var(--cib-type-body1-line-height); font-variation-settings: var(--cib-type-body1-font-variation-settings); margin: 0px 2px; padding: 1px 4px; box-sizing: border-box; border: 1px solid var(--cib-color-stroke-neutral-primary); border-radius: var(--cib-border-radius-medium); background: var(--cib-color-syntax-background-surface); color: rgba(0, 0, 0, 0.894); text-align: left;&quot;&gt;DATA_STREAM&lt;/code&gt;&lt;span style=&quot;color: rgba(0, 0, 0, 0.894); font-family: SegoeUIVariable, SegoeUI, &amp;quot;Segoe UI&amp;quot;, &amp;quot;Helvetica Neue&amp;quot;, Helvetica, &amp;quot;Microsoft YaHei&amp;quot;, &amp;quot;Meiryo UI&amp;quot;, Meiryo, &amp;quot;Arial Unicode MS&amp;quot;, sans-serif; text-align: left; white-space: normal; background-color: rgb(243, 243, 243);&quot;&gt;&amp;nbsp;from the&amp;nbsp;&lt;/span&gt;&lt;code style=&quot;text-wrap: wrap; line-height: var(--cib-type-body1-line-height); font-variation-settings: var(--cib-type-body1-font-variation-settings); margin: 0px 2px; padding: 1px 4px; box-sizing: border-box; border: 1px solid var(--cib-color-stroke-neutral-primary); border-radius: var(--cib-border-radius-medium); background: var(--cib-color-syntax-background-surface); color: rgba(0, 0, 0, 0.894); text-align: left;&quot;&gt;GE_SPM_RULE_HEADERS_ALL&lt;/code&gt;&lt;span style=&quot;color: rgba(0, 0, 0, 0.894); font-family: SegoeUIVariable, SegoeUI, &amp;quot;Segoe UI&amp;quot;, &amp;quot;Helvetica Neue&amp;quot;, Helvetica, &amp;quot;Microsoft YaHei&amp;quot;, &amp;quot;Meiryo UI&amp;quot;, Meiryo, &amp;quot;Arial Unicode MS&amp;quot;, sans-serif; text-align: left; white-space: normal; background-color: rgb(243, 243, 243);&quot;&gt;&amp;nbsp;table based on the specified conditions. It filters records where&amp;nbsp;&lt;/span&gt;&lt;code style=&quot;text-wrap: wrap; line-height: var(--cib-type-body1-line-height); font-variation-settings: var(--cib-type-body1-font-variation-settings); margin: 0px 2px; padding: 1px 4px; box-sizing: border-box; border: 1px solid var(--cib-color-stroke-neutral-primary); border-radius: var(--cib-border-radius-medium); background: var(--cib-color-syntax-background-surface); color: rgba(0, 0, 0, 0.894); text-align: left;&quot;&gt;ACTIVITY_NAME&lt;/code&gt;&lt;span style=&quot;color: rgba(0, 0, 0, 0.894); font-family: SegoeUIVariable, SegoeUI, &amp;quot;Segoe UI&amp;quot;, &amp;quot;Helvetica Neue&amp;quot;, Helvetica, &amp;quot;Microsoft YaHei&amp;quot;, &amp;quot;Meiryo UI&amp;quot;, Meiryo, &amp;quot;Arial Unicode MS&amp;quot;, sans-serif; text-align: left; white-space: normal; background-color: rgb(243, 243, 243);&quot;&gt;&amp;nbsp;matches the value of&amp;nbsp;&lt;/span&gt;&lt;code style=&quot;text-wrap: wrap; line-height: var(--cib-type-body1-line-height); font-variation-settings: var(--cib-type-body1-font-variation-settings); margin: 0px 2px; padding: 1px 4px; box-sizing: border-box; border: 1px solid var(--cib-color-stroke-neutral-primary); border-radius: var(--cib-border-radius-medium); background: var(--cib-color-syntax-background-surface); color: rgba(0, 0, 0, 0.894); text-align: left;&quot;&gt;p_activity_name&lt;/code&gt;&lt;span style=&quot;color: rgba(0, 0, 0, 0.894); font-family: SegoeUIVariable, SegoeUI, &amp;quot;Segoe UI&amp;quot;, &amp;quot;Helvetica Neue&amp;quot;, Helvetica, &amp;quot;Microsoft YaHei&amp;quot;, &amp;quot;Meiryo UI&amp;quot;, Meiryo, &amp;quot;Arial Unicode MS&amp;quot;, sans-serif; text-align: left; white-space: normal; background-color: rgb(243, 243, 243);&quot;&gt;,&amp;nbsp;&lt;/span&gt;&lt;code style=&quot;text-wrap: wrap; line-height: var(--cib-type-body1-line-height); font-variation-settings: var(--cib-type-body1-font-variation-settings); margin: 0px 2px; padding: 1px 4px; box-sizing: border-box; border: 1px solid var(--cib-color-stroke-neutral-primary); border-radius: var(--cib-border-radius-medium); background: var(--cib-color-syntax-background-surface); color: rgba(0, 0, 0, 0.894); text-align: left;&quot;&gt;SPM_ENABLE_FLAG&lt;/code&gt;&lt;span style=&quot;color: rgba(0, 0, 0, 0.894); font-family: SegoeUIVariable, SegoeUI, &amp;quot;Segoe UI&amp;quot;, &amp;quot;Helvetica Neue&amp;quot;, Helvetica, &amp;quot;Microsoft YaHei&amp;quot;, &amp;quot;Meiryo UI&amp;quot;, Meiryo, &amp;quot;Arial Unicode MS&amp;quot;, sans-serif; text-align: left; white-space: normal; background-color: rgb(243, 243, 243);&quot;&gt;&amp;nbsp;is ‘Y’, and&amp;nbsp;&lt;/span&gt;&lt;code style=&quot;text-wrap: wrap; line-height: var(--cib-type-body1-line-height); font-variation-settings: var(--cib-type-body1-font-variation-settings); margin: 0px 2px; padding: 1px 4px; box-sizing: border-box; border: 1px solid var(--cib-color-stroke-neutral-primary); border-radius: var(--cib-border-radius-medium); background: var(--cib-color-syntax-background-surface); color: rgba(0, 0, 0, 0.894); text-align: left;&quot;&gt;enable_flag&lt;/code&gt;&lt;span style=&quot;color: rgba(0, 0, 0, 0.894); font-family: SegoeUIVariable, SegoeUI, &amp;quot;Segoe UI&amp;quot;, &amp;quot;Helvetica Neue&amp;quot;, Helvetica, &amp;quot;Microsoft YaHei&amp;quot;, &amp;quot;Meiryo UI&amp;quot;, Meiryo, &amp;quot;Arial Unicode MS&amp;quot;, sans-serif; text-align: left; white-space: normal; background-color: rgb(243, 243, 243);&quot;&gt;&amp;nbsp;is also ‘Y’. The results are ordered by&amp;nbsp;&lt;/span&gt;&lt;code style=&quot;text-wrap: wrap; line-height: var(--cib-type-body1-line-height); font-variation-settings: var(--cib-type-body1-font-variation-settings); margin: 0px 2px; padding: 1px 4px; box-sizing: border-box; border: 1px solid var(--cib-color-stroke-neutral-primary); border-radius: var(--cib-border-radius-medium); background: var(--cib-color-syntax-background-surface); color: rgba(0, 0, 0, 0.894); text-align: left;&quot;&gt;DATASTREAM_WEIGHTAGE&lt;/code&gt;&lt;span style=&quot;color: rgba(0, 0, 0, 0.894); font-family: SegoeUIVariable, SegoeUI, &amp;quot;Segoe UI&amp;quot;, &amp;quot;Helvetica Neue&amp;quot;, Helvetica, &amp;quot;Microsoft YaHei&amp;quot;, &amp;quot;Meiryo UI&amp;quot;, Meiryo, &amp;quot;Arial Unicode MS&amp;quot;, sans-serif; text-align: left; white-space: normal; background-color: rgb(243, 243, 243);&quot;&gt;.&lt;/span&gt;&lt;span style=&quot;color: #0000ff;&quot;&gt;&lt;br&gt;&lt;/span&gt;&lt;/div&gt;" style="rounded=1;whiteSpace=wrap;html=1;" vertex="1" parent="WIyWlLk6GJQsqaUBKTNV-1">
          <mxGeometry x="155" y="450" width="535" height="150" as="geometry" />
        </mxCell>
        <mxCell id="ynSScAyT_oTB8Sbhrg9Q-12" style="edgeStyle=orthogonalEdgeStyle;rounded=0;orthogonalLoop=1;jettySize=auto;html=1;exitX=0.5;exitY=1;exitDx=0;exitDy=0;entryX=0.5;entryY=0;entryDx=0;entryDy=0;" edge="1" parent="WIyWlLk6GJQsqaUBKTNV-1" source="ynSScAyT_oTB8Sbhrg9Q-8" target="ynSScAyT_oTB8Sbhrg9Q-10">
          <mxGeometry relative="1" as="geometry" />
        </mxCell>
        <mxCell id="ynSScAyT_oTB8Sbhrg9Q-8" value="Begin Block" style="rounded=1;whiteSpace=wrap;html=1;" vertex="1" parent="WIyWlLk6GJQsqaUBKTNV-1">
          <mxGeometry x="370" y="630" width="112.5" height="30" as="geometry" />
        </mxCell>
        <mxCell id="ynSScAyT_oTB8Sbhrg9Q-9" style="edgeStyle=orthogonalEdgeStyle;rounded=0;orthogonalLoop=1;jettySize=auto;html=1;exitX=0.5;exitY=1;exitDx=0;exitDy=0;entryX=0.475;entryY=-0.009;entryDx=0;entryDy=0;entryPerimeter=0;" edge="1" parent="WIyWlLk6GJQsqaUBKTNV-1" source="ynSScAyT_oTB8Sbhrg9Q-6" target="ynSScAyT_oTB8Sbhrg9Q-8">
          <mxGeometry relative="1" as="geometry" />
        </mxCell>
        <mxCell id="ynSScAyT_oTB8Sbhrg9Q-14" style="edgeStyle=orthogonalEdgeStyle;rounded=0;orthogonalLoop=1;jettySize=auto;html=1;exitX=0.5;exitY=1;exitDx=0;exitDy=0;entryX=0.5;entryY=0;entryDx=0;entryDy=0;" edge="1" parent="WIyWlLk6GJQsqaUBKTNV-1" source="ynSScAyT_oTB8Sbhrg9Q-10" target="ynSScAyT_oTB8Sbhrg9Q-13">
          <mxGeometry relative="1" as="geometry" />
        </mxCell>
        <mxCell id="ynSScAyT_oTB8Sbhrg9Q-10" value="Declare Variables:&lt;div&gt;&lt;div style=&quot;background-color: rgb(255, 255, 255); font-family: Consolas, &amp;quot;Courier New&amp;quot;, monospace; font-size: 14px; line-height: 19px; white-space: pre;&quot;&gt;&lt;div&gt;x_message := &lt;span style=&quot;color: #a31515;&quot;&gt;&#39;Package GE_PLN_TRANSFORMATION_CALL is called for &amp;nbsp;&#39;&lt;/span&gt; || p_activity_name;&lt;/div&gt;&lt;/div&gt;&lt;/div&gt;" style="rounded=1;whiteSpace=wrap;html=1;" vertex="1" parent="WIyWlLk6GJQsqaUBKTNV-1">
          <mxGeometry x="94.38" y="690" width="663.75" height="50" as="geometry" />
        </mxCell>
        <mxCell id="ynSScAyT_oTB8Sbhrg9Q-16" style="edgeStyle=orthogonalEdgeStyle;rounded=0;orthogonalLoop=1;jettySize=auto;html=1;exitX=0.5;exitY=1;exitDx=0;exitDy=0;entryX=0.5;entryY=0;entryDx=0;entryDy=0;" edge="1" parent="WIyWlLk6GJQsqaUBKTNV-1" source="ynSScAyT_oTB8Sbhrg9Q-13" target="ynSScAyT_oTB8Sbhrg9Q-15">
          <mxGeometry relative="1" as="geometry" />
        </mxCell>
        <mxCell id="ynSScAyT_oTB8Sbhrg9Q-13" value="&lt;span style=&quot;color: rgba(0, 0, 0, 0.894); font-family: SegoeUIVariable, SegoeUI, &amp;quot;Segoe UI&amp;quot;, &amp;quot;Helvetica Neue&amp;quot;, Helvetica, &amp;quot;Microsoft YaHei&amp;quot;, &amp;quot;Meiryo UI&amp;quot;, Meiryo, &amp;quot;Arial Unicode MS&amp;quot;, sans-serif; font-size: 14px; text-align: left; background-color: rgb(243, 243, 243);&quot;&gt;The provided PL/SQL code snippet attempts to retrieve the value of a debug status of a activity from a table named&amp;nbsp;&lt;/span&gt;&lt;code style=&quot;white-space-collapse: preserve; font-size: 14px; line-height: var(--cib-type-body1-line-height); font-variation-settings: var(--cib-type-body1-font-variation-settings); margin: 0px 2px; padding: 1px 4px; box-sizing: border-box; border: 1px solid var(--cib-color-stroke-neutral-primary); border-radius: var(--cib-border-radius-medium); background: var(--cib-color-syntax-background-surface); color: rgba(0, 0, 0, 0.894); text-align: left;&quot;&gt;GE_PLN_SYSTEM_CONTROLS&lt;/code&gt;&lt;span style=&quot;color: rgba(0, 0, 0, 0.894); font-family: SegoeUIVariable, SegoeUI, &amp;quot;Segoe UI&amp;quot;, &amp;quot;Helvetica Neue&amp;quot;, Helvetica, &amp;quot;Microsoft YaHei&amp;quot;, &amp;quot;Meiryo UI&amp;quot;, Meiryo, &amp;quot;Arial Unicode MS&amp;quot;, sans-serif; font-size: 14px; text-align: left; background-color: rgb(243, 243, 243);&quot;&gt;. If successful, it assigns the value to a variable called&amp;nbsp;&lt;/span&gt;&lt;code style=&quot;white-space-collapse: preserve; font-size: 14px; line-height: var(--cib-type-body1-line-height); font-variation-settings: var(--cib-type-body1-font-variation-settings); margin: 0px 2px; padding: 1px 4px; box-sizing: border-box; border: 1px solid var(--cib-color-stroke-neutral-primary); border-radius: var(--cib-border-radius-medium); background: var(--cib-color-syntax-background-surface); color: rgba(0, 0, 0, 0.894); text-align: left;&quot;&gt;v_debug_status&lt;/code&gt;&lt;span style=&quot;color: rgba(0, 0, 0, 0.894); font-family: SegoeUIVariable, SegoeUI, &amp;quot;Segoe UI&amp;quot;, &amp;quot;Helvetica Neue&amp;quot;, Helvetica, &amp;quot;Microsoft YaHei&amp;quot;, &amp;quot;Meiryo UI&amp;quot;, Meiryo, &amp;quot;Arial Unicode MS&amp;quot;, sans-serif; font-size: 14px; text-align: left; background-color: rgb(243, 243, 243);&quot;&gt;. In case of an exception, it sets&amp;nbsp;&lt;/span&gt;&lt;code style=&quot;white-space-collapse: preserve; font-size: 14px; line-height: var(--cib-type-body1-line-height); font-variation-settings: var(--cib-type-body1-font-variation-settings); margin: 0px 2px; padding: 1px 4px; box-sizing: border-box; border: 1px solid var(--cib-color-stroke-neutral-primary); border-radius: var(--cib-border-radius-medium); background: var(--cib-color-syntax-background-surface); color: rgba(0, 0, 0, 0.894); text-align: left;&quot;&gt;v_debug_status&lt;/code&gt;&lt;span style=&quot;color: rgba(0, 0, 0, 0.894); font-family: SegoeUIVariable, SegoeUI, &amp;quot;Segoe UI&amp;quot;, &amp;quot;Helvetica Neue&amp;quot;, Helvetica, &amp;quot;Microsoft YaHei&amp;quot;, &amp;quot;Meiryo UI&amp;quot;, Meiryo, &amp;quot;Arial Unicode MS&amp;quot;, sans-serif; font-size: 14px; text-align: left; background-color: rgb(243, 243, 243);&quot;&gt;&amp;nbsp;to ‘NO’.&lt;/span&gt;" style="rounded=1;whiteSpace=wrap;html=1;" vertex="1" parent="WIyWlLk6GJQsqaUBKTNV-1">
          <mxGeometry x="225.63" y="780" width="401.26" height="110" as="geometry" />
        </mxCell>
        <mxCell id="ynSScAyT_oTB8Sbhrg9Q-15" value="&lt;span style=&quot;color: rgba(0, 0, 0, 0.894); font-family: SegoeUIVariable, SegoeUI, &amp;quot;Segoe UI&amp;quot;, &amp;quot;Helvetica Neue&amp;quot;, Helvetica, &amp;quot;Microsoft YaHei&amp;quot;, &amp;quot;Meiryo UI&amp;quot;, Meiryo, &amp;quot;Arial Unicode MS&amp;quot;, sans-serif; font-size: 14px; text-align: left; background-color: rgb(243, 243, 243);&quot;&gt;The provided PL/SQL code snippet checks the value of&amp;nbsp;&lt;/span&gt;&lt;code style=&quot;white-space-collapse: preserve; font-size: 14px; line-height: var(--cib-type-body1-line-height); font-variation-settings: var(--cib-type-body1-font-variation-settings); margin: 0px 2px; padding: 1px 4px; box-sizing: border-box; border: 1px solid var(--cib-color-stroke-neutral-primary); border-radius: var(--cib-border-radius-medium); background: var(--cib-color-syntax-background-surface); color: rgba(0, 0, 0, 0.894); text-align: left;&quot;&gt;v_debug_status&lt;/code&gt;&lt;span style=&quot;color: rgba(0, 0, 0, 0.894); font-family: SegoeUIVariable, SegoeUI, &amp;quot;Segoe UI&amp;quot;, &amp;quot;Helvetica Neue&amp;quot;, Helvetica, &amp;quot;Microsoft YaHei&amp;quot;, &amp;quot;Meiryo UI&amp;quot;, Meiryo, &amp;quot;Arial Unicode MS&amp;quot;, sans-serif; font-size: 14px; text-align: left; background-color: rgb(243, 243, 243);&quot;&gt;. If it’s not equal to ‘YES’, it assigns a message indicating that debug mode is disabled for the specified activity (&lt;/span&gt;&lt;code style=&quot;white-space-collapse: preserve; font-size: 14px; line-height: var(--cib-type-body1-line-height); font-variation-settings: var(--cib-type-body1-font-variation-settings); margin: 0px 2px; padding: 1px 4px; box-sizing: border-box; border: 1px solid var(--cib-color-stroke-neutral-primary); border-radius: var(--cib-border-radius-medium); background: var(--cib-color-syntax-background-surface); color: rgba(0, 0, 0, 0.894); text-align: left;&quot;&gt;p_activity_name&lt;/code&gt;&lt;span style=&quot;color: rgba(0, 0, 0, 0.894); font-family: SegoeUIVariable, SegoeUI, &amp;quot;Segoe UI&amp;quot;, &amp;quot;Helvetica Neue&amp;quot;, Helvetica, &amp;quot;Microsoft YaHei&amp;quot;, &amp;quot;Meiryo UI&amp;quot;, Meiryo, &amp;quot;Arial Unicode MS&amp;quot;, sans-serif; font-size: 14px; text-align: left; background-color: rgb(243, 243, 243);&quot;&gt;). Otherwise, it sets a message indicating that debug mode is enabled for the same activity.&lt;/span&gt;" style="rounded=1;whiteSpace=wrap;html=1;" vertex="1" parent="WIyWlLk6GJQsqaUBKTNV-1">
          <mxGeometry x="224.08" y="930" width="404.37" height="120" as="geometry" />
        </mxCell>
        <mxCell id="ynSScAyT_oTB8Sbhrg9Q-21" style="edgeStyle=orthogonalEdgeStyle;rounded=0;orthogonalLoop=1;jettySize=auto;html=1;exitX=0.5;exitY=1;exitDx=0;exitDy=0;entryX=0.5;entryY=0;entryDx=0;entryDy=0;" edge="1" parent="WIyWlLk6GJQsqaUBKTNV-1" source="ynSScAyT_oTB8Sbhrg9Q-17" target="ynSScAyT_oTB8Sbhrg9Q-20">
          <mxGeometry relative="1" as="geometry" />
        </mxCell>
        <mxCell id="ynSScAyT_oTB8Sbhrg9Q-17" value="&lt;span style=&quot;color: rgba(0, 0, 0, 0.894); font-family: SegoeUIVariable, SegoeUI, &amp;quot;Segoe UI&amp;quot;, &amp;quot;Helvetica Neue&amp;quot;, Helvetica, &amp;quot;Microsoft YaHei&amp;quot;, &amp;quot;Meiryo UI&amp;quot;, Meiryo, &amp;quot;Arial Unicode MS&amp;quot;, sans-serif; font-size: 14px; text-align: left; background-color: rgb(243, 243, 243);&quot;&gt;The provided PL/SQL code snippet attempts to call the&amp;nbsp;&lt;/span&gt;&lt;code style=&quot;white-space-collapse: preserve; font-size: 14px; line-height: var(--cib-type-body1-line-height); font-variation-settings: var(--cib-type-body1-font-variation-settings); margin: 0px 2px; padding: 1px 4px; box-sizing: border-box; border: 1px solid var(--cib-color-stroke-neutral-primary); border-radius: var(--cib-border-radius-medium); background: var(--cib-color-syntax-background-surface); color: rgba(0, 0, 0, 0.894); text-align: left;&quot;&gt;GE_IFACE_SPM_DETAILS.GE_IFACE_SPM_INSERT&lt;/code&gt;&lt;span style=&quot;color: rgba(0, 0, 0, 0.894); font-family: SegoeUIVariable, SegoeUI, &amp;quot;Segoe UI&amp;quot;, &amp;quot;Helvetica Neue&amp;quot;, Helvetica, &amp;quot;Microsoft YaHei&amp;quot;, &amp;quot;Meiryo UI&amp;quot;, Meiryo, &amp;quot;Arial Unicode MS&amp;quot;, sans-serif; font-size: 14px; text-align: left; background-color: rgb(243, 243, 243);&quot;&gt;&amp;nbsp;procedure with specific parameters (&lt;/span&gt;&lt;span style=&quot;background-color: rgb(255, 255, 255); font-family: Consolas, &amp;quot;Courier New&amp;quot;, monospace; font-size: 14px; white-space: pre; color: rgb(163, 21, 21);&quot;&gt;&#39;execute_transformation&#39;&lt;/span&gt;&lt;span style=&quot;background-color: rgb(255, 255, 255); font-family: Consolas, &amp;quot;Courier New&amp;quot;, monospace; font-size: 14px; white-space: pre;&quot;&gt;, &lt;/span&gt;&lt;span style=&quot;background-color: rgb(255, 255, 255); font-family: Consolas, &amp;quot;Courier New&amp;quot;, monospace; font-size: 14px; white-space: pre; color: rgb(163, 21, 21);&quot;&gt;&#39;GE_PLN_TRANSFORMATION&#39; etc.&lt;/span&gt;&lt;span style=&quot;color: rgba(0, 0, 0, 0.894); font-family: SegoeUIVariable, SegoeUI, &amp;quot;Segoe UI&amp;quot;, &amp;quot;Helvetica Neue&amp;quot;, Helvetica, &amp;quot;Microsoft YaHei&amp;quot;, &amp;quot;Meiryo UI&amp;quot;, Meiryo, &amp;quot;Arial Unicode MS&amp;quot;, sans-serif; font-size: 14px; text-align: left; background-color: rgb(243, 243, 243);&quot;&gt;). If an exception occurs, it sets various variables (&lt;/span&gt;&lt;code style=&quot;white-space-collapse: preserve; font-size: 14px; line-height: var(--cib-type-body1-line-height); font-variation-settings: var(--cib-type-body1-font-variation-settings); margin: 0px 2px; padding: 1px 4px; box-sizing: border-box; border: 1px solid var(--cib-color-stroke-neutral-primary); border-radius: var(--cib-border-radius-medium); background: var(--cib-color-syntax-background-surface); color: rgba(0, 0, 0, 0.894); text-align: left;&quot;&gt;p_status&lt;/code&gt;&lt;span style=&quot;color: rgba(0, 0, 0, 0.894); font-family: SegoeUIVariable, SegoeUI, &amp;quot;Segoe UI&amp;quot;, &amp;quot;Helvetica Neue&amp;quot;, Helvetica, &amp;quot;Microsoft YaHei&amp;quot;, &amp;quot;Meiryo UI&amp;quot;, Meiryo, &amp;quot;Arial Unicode MS&amp;quot;, sans-serif; font-size: 14px; text-align: left; background-color: rgb(243, 243, 243);&quot;&gt;,&amp;nbsp;&lt;/span&gt;&lt;code style=&quot;white-space-collapse: preserve; font-size: 14px; line-height: var(--cib-type-body1-line-height); font-variation-settings: var(--cib-type-body1-font-variation-settings); margin: 0px 2px; padding: 1px 4px; box-sizing: border-box; border: 1px solid var(--cib-color-stroke-neutral-primary); border-radius: var(--cib-border-radius-medium); background: var(--cib-color-syntax-background-surface); color: rgba(0, 0, 0, 0.894); text-align: left;&quot;&gt;p_message&lt;/code&gt;&lt;span style=&quot;color: rgba(0, 0, 0, 0.894); font-family: SegoeUIVariable, SegoeUI, &amp;quot;Segoe UI&amp;quot;, &amp;quot;Helvetica Neue&amp;quot;, Helvetica, &amp;quot;Microsoft YaHei&amp;quot;, &amp;quot;Meiryo UI&amp;quot;, Meiryo, &amp;quot;Arial Unicode MS&amp;quot;, sans-serif; font-size: 14px; text-align: left; background-color: rgb(243, 243, 243);&quot;&gt;,&amp;nbsp;&lt;/span&gt;&lt;code style=&quot;white-space-collapse: preserve; font-size: 14px; line-height: var(--cib-type-body1-line-height); font-variation-settings: var(--cib-type-body1-font-variation-settings); margin: 0px 2px; padding: 1px 4px; box-sizing: border-box; border: 1px solid var(--cib-color-stroke-neutral-primary); border-radius: var(--cib-border-radius-medium); background: var(--cib-color-syntax-background-surface); color: rgba(0, 0, 0, 0.894); text-align: left;&quot;&gt;x_message&lt;/code&gt;&lt;span style=&quot;color: rgba(0, 0, 0, 0.894); font-family: SegoeUIVariable, SegoeUI, &amp;quot;Segoe UI&amp;quot;, &amp;quot;Helvetica Neue&amp;quot;, Helvetica, &amp;quot;Microsoft YaHei&amp;quot;, &amp;quot;Meiryo UI&amp;quot;, Meiryo, &amp;quot;Arial Unicode MS&amp;quot;, sans-serif; font-size: 14px; text-align: left; background-color: rgb(243, 243, 243);&quot;&gt;, and&amp;nbsp;&lt;/span&gt;&lt;code style=&quot;white-space-collapse: preserve; font-size: 14px; line-height: var(--cib-type-body1-line-height); font-variation-settings: var(--cib-type-body1-font-variation-settings); margin: 0px 2px; padding: 1px 4px; box-sizing: border-box; border: 1px solid var(--cib-color-stroke-neutral-primary); border-radius: var(--cib-border-radius-medium); background: var(--cib-color-syntax-background-surface); color: rgba(0, 0, 0, 0.894); text-align: left;&quot;&gt;v_debug_message&lt;/code&gt;&lt;span style=&quot;color: rgba(0, 0, 0, 0.894); font-family: SegoeUIVariable, SegoeUI, &amp;quot;Segoe UI&amp;quot;, &amp;quot;Helvetica Neue&amp;quot;, Helvetica, &amp;quot;Microsoft YaHei&amp;quot;, &amp;quot;Meiryo UI&amp;quot;, Meiryo, &amp;quot;Arial Unicode MS&amp;quot;, sans-serif; font-size: 14px; text-align: left; background-color: rgb(243, 243, 243);&quot;&gt;) accordingly (Status= E and process cannot be called).&lt;/span&gt;" style="rounded=1;whiteSpace=wrap;html=1;" vertex="1" parent="WIyWlLk6GJQsqaUBKTNV-1">
          <mxGeometry x="177.5" y="1080" width="530" height="120" as="geometry" />
        </mxCell>
        <mxCell id="ynSScAyT_oTB8Sbhrg9Q-19" style="edgeStyle=orthogonalEdgeStyle;rounded=0;orthogonalLoop=1;jettySize=auto;html=1;exitX=0.5;exitY=1;exitDx=0;exitDy=0;entryX=0.472;entryY=0.022;entryDx=0;entryDy=0;entryPerimeter=0;" edge="1" parent="WIyWlLk6GJQsqaUBKTNV-1" source="ynSScAyT_oTB8Sbhrg9Q-15" target="ynSScAyT_oTB8Sbhrg9Q-17">
          <mxGeometry relative="1" as="geometry" />
        </mxCell>
        <mxCell id="ynSScAyT_oTB8Sbhrg9Q-24" style="edgeStyle=orthogonalEdgeStyle;rounded=0;orthogonalLoop=1;jettySize=auto;html=1;exitX=0.5;exitY=1;exitDx=0;exitDy=0;entryX=0.5;entryY=0;entryDx=0;entryDy=0;" edge="1" parent="WIyWlLk6GJQsqaUBKTNV-1" source="ynSScAyT_oTB8Sbhrg9Q-20" target="ynSScAyT_oTB8Sbhrg9Q-22">
          <mxGeometry relative="1" as="geometry" />
        </mxCell>
        <mxCell id="ynSScAyT_oTB8Sbhrg9Q-20" value="&lt;p style=&quot;padding: 0px; margin-right: 0px; margin-bottom: 0px; margin-left: 0px; word-break: break-word; font-size: 14px; line-height: var(--cib-type-body1-line-height); font-variation-settings: var(--cib-type-body1-font-variation-settings); color: rgba(0, 0, 0, 0.894); font-family: SegoeUIVariable, SegoeUI, &amp;quot;Segoe UI&amp;quot;, &amp;quot;Helvetica Neue&amp;quot;, Helvetica, &amp;quot;Microsoft YaHei&amp;quot;, &amp;quot;Meiryo UI&amp;quot;, Meiryo, &amp;quot;Arial Unicode MS&amp;quot;, sans-serif; background-color: rgb(243, 243, 243); margin-top: 0px !important;&quot;&gt;&amp;nbsp;The provided SQL query calculates the number of records in the&amp;nbsp;&lt;code style=&quot;white-space-collapse: preserve; font-size: var(--cib-type-body1-font-size); line-height: var(--cib-type-body1-line-height); font-variation-settings: var(--cib-type-body1-font-variation-settings); margin: 0px 2px; padding: 1px 4px; box-sizing: border-box; border: 1px solid var(--cib-color-stroke-neutral-primary); border-radius: var(--cib-border-radius-medium); background: var(--cib-color-syntax-background-surface);&quot;&gt;GEMS_IFACE_SPM_TABLE&lt;/code&gt;&amp;nbsp;table based on specific conditions. It counts rows where:&lt;/p&gt;&lt;code style=&quot;background: var(--cib-color-syntax-background-surface); color: rgba(0, 0, 0, 0.894); font-size: var(--cib-type-body1-font-size); white-space-collapse: preserve; line-height: var(--cib-type-body1-line-height); font-variation-settings: var(--cib-type-body1-font-variation-settings); margin: 0px 2px; padding: 1px 4px; box-sizing: border-box; border: 1px solid var(--cib-color-stroke-neutral-primary); border-radius: var(--cib-border-radius-medium);&quot;&gt;&lt;ul&gt;&lt;li&gt;&lt;code style=&quot;background: var(--cib-color-syntax-background-surface); color: rgba(0, 0, 0, 0.894); font-size: var(--cib-type-body1-font-size); white-space-collapse: preserve; line-height: var(--cib-type-body1-line-height); font-variation-settings: var(--cib-type-body1-font-variation-settings); margin: 0px 2px; padding: 1px 4px; box-sizing: border-box; border: 1px solid var(--cib-color-stroke-neutral-primary); border-radius: var(--cib-border-radius-medium);&quot;&gt;ACTIVITY_NAME&lt;/code&gt;&lt;span style=&quot;background-color: rgb(243, 243, 243); color: rgba(0, 0, 0, 0.894); font-family: SegoeUIVariable, SegoeUI, &amp;quot;Segoe UI&amp;quot;, &amp;quot;Helvetica Neue&amp;quot;, Helvetica, &amp;quot;Microsoft YaHei&amp;quot;, &amp;quot;Meiryo UI&amp;quot;, Meiryo, &amp;quot;Arial Unicode MS&amp;quot;, sans-serif; font-size: 14px;&quot;&gt;&amp;nbsp;matches the value of&amp;nbsp;&lt;/span&gt;&lt;code style=&quot;background: var(--cib-color-syntax-background-surface); color: rgba(0, 0, 0, 0.894); font-size: var(--cib-type-body1-font-size); white-space-collapse: preserve; line-height: var(--cib-type-body1-line-height); font-variation-settings: var(--cib-type-body1-font-variation-settings); margin: 0px 2px; padding: 1px 4px; box-sizing: border-box; border: 1px solid var(--cib-color-stroke-neutral-primary); border-radius: var(--cib-border-radius-medium);&quot;&gt;p_activity_name&lt;/code&gt;&lt;span style=&quot;background-color: rgb(243, 243, 243); color: rgba(0, 0, 0, 0.894); font-family: SegoeUIVariable, SegoeUI, &amp;quot;Segoe UI&amp;quot;, &amp;quot;Helvetica Neue&amp;quot;, Helvetica, &amp;quot;Microsoft YaHei&amp;quot;, &amp;quot;Meiryo UI&amp;quot;, Meiryo, &amp;quot;Arial Unicode MS&amp;quot;, sans-serif; font-size: 14px;&quot;&gt;.&lt;/span&gt;&lt;/li&gt;&lt;li&gt;&lt;code style=&quot;background: var(--cib-color-syntax-background-surface); color: rgba(0, 0, 0, 0.894); font-size: var(--cib-type-body1-font-size); white-space-collapse: preserve; line-height: var(--cib-type-body1-line-height); font-variation-settings: var(--cib-type-body1-font-variation-settings); margin: 0px 2px; padding: 1px 4px; box-sizing: border-box; border: 1px solid var(--cib-color-stroke-neutral-primary); border-radius: var(--cib-border-radius-medium);&quot;&gt;STATUS_FLAG&lt;/code&gt;&lt;span style=&quot;background-color: rgb(243, 243, 243); color: rgba(0, 0, 0, 0.894); font-family: SegoeUIVariable, SegoeUI, &amp;quot;Segoe UI&amp;quot;, &amp;quot;Helvetica Neue&amp;quot;, Helvetica, &amp;quot;Microsoft YaHei&amp;quot;, &amp;quot;Meiryo UI&amp;quot;, Meiryo, &amp;quot;Arial Unicode MS&amp;quot;, sans-serif; font-size: 14px;&quot;&gt;&amp;nbsp;is not ‘E’ or ‘C’.&lt;/span&gt;&lt;/li&gt;&lt;li&gt;&lt;span style=&quot;background-color: rgb(243, 243, 243); color: rgba(0, 0, 0, 0.894); font-family: SegoeUIVariable, SegoeUI, &amp;quot;Segoe UI&amp;quot;, &amp;quot;Helvetica Neue&amp;quot;, Helvetica, &amp;quot;Microsoft YaHei&amp;quot;, &amp;quot;Meiryo UI&amp;quot;, Meiryo, &amp;quot;Arial Unicode MS&amp;quot;, sans-serif; font-size: 14px;&quot;&gt;The&amp;nbsp;&lt;/span&gt;&lt;code style=&quot;background: var(--cib-color-syntax-background-surface); color: rgba(0, 0, 0, 0.894); font-size: var(--cib-type-body1-font-size); white-space-collapse: preserve; line-height: var(--cib-type-body1-line-height); font-variation-settings: var(--cib-type-body1-font-variation-settings); margin: 0px 2px; padding: 1px 4px; box-sizing: border-box; border: 1px solid var(--cib-color-stroke-neutral-primary); border-radius: var(--cib-border-radius-medium);&quot;&gt;creation_date&lt;/code&gt;&lt;span style=&quot;background-color: rgb(243, 243, 243); color: rgba(0, 0, 0, 0.894); font-family: SegoeUIVariable, SegoeUI, &amp;quot;Segoe UI&amp;quot;, &amp;quot;Helvetica Neue&amp;quot;, Helvetica, &amp;quot;Microsoft YaHei&amp;quot;, &amp;quot;Meiryo UI&amp;quot;, Meiryo, &amp;quot;Arial Unicode MS&amp;quot;, sans-serif; font-size: 14px;&quot;&gt;&amp;nbsp;is within the last 5 hours (300 minutes) from the current time.&lt;/span&gt;&lt;/li&gt;&lt;/ul&gt;&lt;/code&gt;&lt;p style=&quot;padding: 0px; margin: 8px 0px 0px; word-break: break-word; font-size: 14px; line-height: var(--cib-type-body1-line-height); font-variation-settings: var(--cib-type-body1-font-variation-settings); color: rgba(0, 0, 0, 0.894); font-family: SegoeUIVariable, SegoeUI, &amp;quot;Segoe UI&amp;quot;, &amp;quot;Helvetica Neue&amp;quot;, Helvetica, &amp;quot;Microsoft YaHei&amp;quot;, &amp;quot;Meiryo UI&amp;quot;, Meiryo, &amp;quot;Arial Unicode MS&amp;quot;, sans-serif; background-color: rgb(243, 243, 243);&quot;&gt;The result is stored in the variable&amp;nbsp;&lt;code style=&quot;white-space-collapse: preserve; font-size: var(--cib-type-body1-font-size); line-height: var(--cib-type-body1-line-height); font-variation-settings: var(--cib-type-body1-font-variation-settings); margin: 0px 2px; padding: 1px 4px; box-sizing: border-box; border: 1px solid var(--cib-color-stroke-neutral-primary); border-radius: var(--cib-border-radius-medium); background: var(--cib-color-syntax-background-surface);&quot;&gt;num_of_program_running&lt;/code&gt;, and the&amp;nbsp;&lt;code style=&quot;white-space-collapse: preserve; font-size: var(--cib-type-body1-font-size); line-height: var(--cib-type-body1-line-height); font-variation-settings: var(--cib-type-body1-font-variation-settings); margin: 0px 2px; padding: 1px 4px; box-sizing: border-box; border: 1px solid var(--cib-color-stroke-neutral-primary); border-radius: var(--cib-border-radius-medium); background: var(--cib-color-syntax-background-surface);&quot;&gt;v_debug_message&lt;/code&gt;&amp;nbsp;variable is set to&amp;nbsp;&lt;code style=&quot;white-space-collapse: preserve; font-size: var(--cib-type-body1-font-size); line-height: var(--cib-type-body1-line-height); font-variation-settings: var(--cib-type-body1-font-variation-settings); margin: 0px 2px; padding: 1px 4px; box-sizing: border-box; border: 1px solid var(--cib-color-stroke-neutral-primary); border-radius: var(--cib-border-radius-medium); background: var(--cib-color-syntax-background-surface);&quot;&gt;NULL&lt;/code&gt;&lt;/p&gt;" style="rounded=1;whiteSpace=wrap;html=1;align=center;" vertex="1" parent="WIyWlLk6GJQsqaUBKTNV-1">
          <mxGeometry x="155" y="1240" width="573.75" height="190" as="geometry" />
        </mxCell>
        <mxCell id="ynSScAyT_oTB8Sbhrg9Q-26" style="edgeStyle=orthogonalEdgeStyle;rounded=0;orthogonalLoop=1;jettySize=auto;html=1;exitX=0.5;exitY=1;exitDx=0;exitDy=0;entryX=0.5;entryY=0;entryDx=0;entryDy=0;" edge="1" parent="WIyWlLk6GJQsqaUBKTNV-1" source="ynSScAyT_oTB8Sbhrg9Q-22" target="ynSScAyT_oTB8Sbhrg9Q-25">
          <mxGeometry relative="1" as="geometry" />
        </mxCell>
        <mxCell id="ynSScAyT_oTB8Sbhrg9Q-22" value="&lt;div style=&quot;background-color: rgb(255, 255, 255); font-family: Consolas, &amp;quot;Courier New&amp;quot;, monospace; font-size: 14px; line-height: 19px; white-space: pre;&quot;&gt;&lt;span style=&quot;color: #0000ff;&quot;&gt;IF&lt;/span&gt; (num_of_program_running = &lt;span style=&quot;color: #098658;&quot;&gt;1&lt;/span&gt;) &lt;span style=&quot;color: #0000ff;&quot;&gt;THEN&lt;/span&gt;&lt;/div&gt;" style="rounded=1;whiteSpace=wrap;html=1;" vertex="1" parent="WIyWlLk6GJQsqaUBKTNV-1">
          <mxGeometry x="297.5" y="1460" width="290" height="30" as="geometry" />
        </mxCell>
        <mxCell id="ynSScAyT_oTB8Sbhrg9Q-28" style="edgeStyle=orthogonalEdgeStyle;rounded=0;orthogonalLoop=1;jettySize=auto;html=1;exitX=0.5;exitY=1;exitDx=0;exitDy=0;entryX=0.5;entryY=0;entryDx=0;entryDy=0;" edge="1" parent="WIyWlLk6GJQsqaUBKTNV-1" source="ynSScAyT_oTB8Sbhrg9Q-25" target="ynSScAyT_oTB8Sbhrg9Q-27">
          <mxGeometry relative="1" as="geometry" />
        </mxCell>
        <mxCell id="ynSScAyT_oTB8Sbhrg9Q-25" value="&lt;div style=&quot;background-color: rgb(255, 255, 255); font-family: Consolas, &amp;quot;Courier New&amp;quot;, monospace; font-size: 14px; line-height: 19px; white-space: pre;&quot;&gt;&lt;div&gt;&amp;nbsp;&lt;span style=&quot;color: #0000ff;&quot;&gt;IF&lt;/span&gt; (p_status != &lt;span style=&quot;color: #a31515;&quot;&gt;&#39;E&#39;&lt;/span&gt;) &lt;span style=&quot;color: #0000ff;&quot;&gt;THEN&lt;/span&gt;&lt;/div&gt;&lt;div&gt;&lt;/div&gt;&lt;/div&gt;" style="rounded=1;whiteSpace=wrap;html=1;" vertex="1" parent="WIyWlLk6GJQsqaUBKTNV-1">
          <mxGeometry x="338.75" y="1520" width="207.5" height="30" as="geometry" />
        </mxCell>
        <mxCell id="ynSScAyT_oTB8Sbhrg9Q-31" style="edgeStyle=orthogonalEdgeStyle;rounded=0;orthogonalLoop=1;jettySize=auto;html=1;exitX=0.5;exitY=1;exitDx=0;exitDy=0;entryX=0.5;entryY=0;entryDx=0;entryDy=0;" edge="1" parent="WIyWlLk6GJQsqaUBKTNV-1" source="ynSScAyT_oTB8Sbhrg9Q-27" target="ynSScAyT_oTB8Sbhrg9Q-30">
          <mxGeometry relative="1" as="geometry" />
        </mxCell>
        <mxCell id="ynSScAyT_oTB8Sbhrg9Q-27" value="&lt;ul style=&quot;display: flex; flex-direction: column; gap: 12px; margin: 12px 0px 0px; padding-inline-start: 24px; color: rgba(0, 0, 0, 0.894); font-family: SegoeUIVariable, SegoeUI, &amp;quot;Segoe UI&amp;quot;, &amp;quot;Helvetica Neue&amp;quot;, Helvetica, &amp;quot;Microsoft YaHei&amp;quot;, &amp;quot;Meiryo UI&amp;quot;, Meiryo, &amp;quot;Arial Unicode MS&amp;quot;, sans-serif; font-size: 14px; text-align: left; background-color: rgb(243, 243, 243);&quot;&gt;&lt;li&gt;&lt;strong style=&quot;font-size: var(--cib-type-body1-strong-font-size); line-height: var(--cib-type-body1-strong-line-height); font-variation-settings: normal;&quot;&gt;Before INBD STUB START&lt;/strong&gt;: It appears to be a comment indicating the start of a specific section.&lt;/li&gt;&lt;li&gt;A call to the&amp;nbsp;&lt;code style=&quot;white-space-collapse: preserve; font-size: var(--cib-type-body1-font-size); line-height: var(--cib-type-body1-line-height); font-variation-settings: var(--cib-type-body1-font-variation-settings); margin: 0px 2px; padding: 1px 4px; box-sizing: border-box; border: 1px solid var(--cib-color-stroke-neutral-primary); border-radius: var(--cib-border-radius-medium); background: var(--cib-color-syntax-background-surface);&quot;&gt;GE_PLN_REQUEST_SET&lt;/code&gt;&amp;nbsp;procedure with parameters (&lt;code style=&quot;white-space-collapse: preserve; font-size: var(--cib-type-body1-font-size); line-height: var(--cib-type-body1-line-height); font-variation-settings: var(--cib-type-body1-font-variation-settings); margin: 0px 2px; padding: 1px 4px; box-sizing: border-box; border: 1px solid var(--cib-color-stroke-neutral-primary); border-radius: var(--cib-border-radius-medium); background: var(--cib-color-syntax-background-surface);&quot;&gt;p_activity_name&lt;/code&gt;, ‘BEFORE_IP’,&amp;nbsp;&lt;code style=&quot;white-space-collapse: preserve; font-size: var(--cib-type-body1-font-size); line-height: var(--cib-type-body1-line-height); font-variation-settings: var(--cib-type-body1-font-variation-settings); margin: 0px 2px; padding: 1px 4px; box-sizing: border-box; border: 1px solid var(--cib-color-stroke-neutral-primary); border-radius: var(--cib-border-radius-medium); background: var(--cib-color-syntax-background-surface);&quot;&gt;x_status&lt;/code&gt;, and&amp;nbsp;&lt;code style=&quot;white-space-collapse: preserve; font-size: var(--cib-type-body1-font-size); line-height: var(--cib-type-body1-line-height); font-variation-settings: var(--cib-type-body1-font-variation-settings); margin: 0px 2px; padding: 1px 4px; box-sizing: border-box; border: 1px solid var(--cib-color-stroke-neutral-primary); border-radius: var(--cib-border-radius-medium); background: var(--cib-color-syntax-background-surface);&quot;&gt;x_message&lt;/code&gt;). The result of this procedure is assigned to&amp;nbsp;&lt;code style=&quot;white-space-collapse: preserve; font-size: var(--cib-type-body1-font-size); line-height: var(--cib-type-body1-line-height); font-variation-settings: var(--cib-type-body1-font-variation-settings); margin: 0px 2px; padding: 1px 4px; box-sizing: border-box; border: 1px solid var(--cib-color-stroke-neutral-primary); border-radius: var(--cib-border-radius-medium); background: var(--cib-color-syntax-background-surface);&quot;&gt;p_status&lt;/code&gt;&amp;nbsp;after applying the&amp;nbsp;&lt;code style=&quot;white-space-collapse: preserve; font-size: var(--cib-type-body1-font-size); line-height: var(--cib-type-body1-line-height); font-variation-settings: var(--cib-type-body1-font-variation-settings); margin: 0px 2px; padding: 1px 4px; box-sizing: border-box; border: 1px solid var(--cib-color-stroke-neutral-primary); border-radius: var(--cib-border-radius-medium); background: var(--cib-color-syntax-background-surface);&quot;&gt;NVL&lt;/code&gt;&amp;nbsp;function.&lt;/li&gt;&lt;li&gt;&lt;strong style=&quot;font-size: var(--cib-type-body1-strong-font-size); line-height: var(--cib-type-body1-strong-line-height); font-variation-settings: normal;&quot;&gt;Before INBD STUB END&lt;/strong&gt;: Another comment indicating the end of the section.&lt;/li&gt;&lt;/ul&gt;" style="rounded=1;whiteSpace=wrap;html=1;" vertex="1" parent="WIyWlLk6GJQsqaUBKTNV-1">
          <mxGeometry x="237.66" y="1590" width="408.44" height="180" as="geometry" />
        </mxCell>
        <mxCell id="ynSScAyT_oTB8Sbhrg9Q-33" style="edgeStyle=orthogonalEdgeStyle;rounded=0;orthogonalLoop=1;jettySize=auto;html=1;exitX=0.5;exitY=1;exitDx=0;exitDy=0;entryX=0.5;entryY=0;entryDx=0;entryDy=0;" edge="1" parent="WIyWlLk6GJQsqaUBKTNV-1" source="ynSScAyT_oTB8Sbhrg9Q-30" target="ynSScAyT_oTB8Sbhrg9Q-32">
          <mxGeometry relative="1" as="geometry" />
        </mxCell>
        <mxCell id="ynSScAyT_oTB8Sbhrg9Q-30" value="&lt;ol style=&quot;margin: 8px 0px 0px; display: flex; flex-direction: column; gap: 12px; padding-inline-start: 24px; color: rgba(0, 0, 0, 0.894); font-family: SegoeUIVariable, SegoeUI, &amp;quot;Segoe UI&amp;quot;, &amp;quot;Helvetica Neue&amp;quot;, Helvetica, &amp;quot;Microsoft YaHei&amp;quot;, &amp;quot;Meiryo UI&amp;quot;, Meiryo, &amp;quot;Arial Unicode MS&amp;quot;, sans-serif; font-size: 14px; text-align: left; background-color: rgb(243, 243, 243);&quot;&gt;&lt;li&gt;After the inner&amp;nbsp;&lt;code style=&quot;white-space-collapse: preserve; font-size: var(--cib-type-body1-font-size); line-height: var(--cib-type-body1-line-height); font-variation-settings: var(--cib-type-body1-font-variation-settings); margin: 0px 2px; padding: 1px 4px; box-sizing: border-box; border: 1px solid var(--cib-color-stroke-neutral-primary); border-radius: var(--cib-border-radius-medium); background: var(--cib-color-syntax-background-surface);&quot;&gt;IF&lt;/code&gt;&amp;nbsp;block, there’s an assignment to&amp;nbsp;&lt;code style=&quot;white-space-collapse: preserve; font-size: var(--cib-type-body1-font-size); line-height: var(--cib-type-body1-line-height); font-variation-settings: var(--cib-type-body1-font-variation-settings); margin: 0px 2px; padding: 1px 4px; box-sizing: border-box; border: 1px solid var(--cib-color-stroke-neutral-primary); border-radius: var(--cib-border-radius-medium); background: var(--cib-color-syntax-background-surface);&quot;&gt;x_message&lt;/code&gt;&amp;nbsp;indicating that STUB execution (for INBD to PRSD flow) is started for the specified activity (&lt;code style=&quot;white-space-collapse: preserve; font-size: var(--cib-type-body1-font-size); line-height: var(--cib-type-body1-line-height); font-variation-settings: var(--cib-type-body1-font-variation-settings); margin: 0px 2px; padding: 1px 4px; box-sizing: border-box; border: 1px solid var(--cib-color-stroke-neutral-primary); border-radius: var(--cib-border-radius-medium); background: var(--cib-color-syntax-background-surface);&quot;&gt;p_activity_name&lt;/code&gt;).&lt;/li&gt;&lt;li&gt;If&amp;nbsp;&lt;code style=&quot;white-space-collapse: preserve; font-size: var(--cib-type-body1-font-size); line-height: var(--cib-type-body1-line-height); font-variation-settings: var(--cib-type-body1-font-variation-settings); margin: 0px 2px; padding: 1px 4px; box-sizing: border-box; border: 1px solid var(--cib-color-stroke-neutral-primary); border-radius: var(--cib-border-radius-medium); background: var(--cib-color-syntax-background-surface);&quot;&gt;v_debug_status&lt;/code&gt;&amp;nbsp;is ‘YES’, the variable&amp;nbsp;&lt;code style=&quot;white-space-collapse: preserve; font-size: var(--cib-type-body1-font-size); line-height: var(--cib-type-body1-line-height); font-variation-settings: var(--cib-type-body1-font-variation-settings); margin: 0px 2px; padding: 1px 4px; box-sizing: border-box; border: 1px solid var(--cib-color-stroke-neutral-primary); border-radius: var(--cib-border-radius-medium); background: var(--cib-color-syntax-background-surface);&quot;&gt;v_debug_message&lt;/code&gt;&amp;nbsp;is set accordingly.&lt;/li&gt;&lt;/ol&gt;" style="rounded=1;whiteSpace=wrap;html=1;" vertex="1" parent="WIyWlLk6GJQsqaUBKTNV-1">
          <mxGeometry x="280" y="1800" width="328.6" height="130" as="geometry" />
        </mxCell>
        <mxCell id="ynSScAyT_oTB8Sbhrg9Q-32" value="&lt;span style=&quot;color: rgba(0, 0, 0, 0.894); font-family: SegoeUIVariable, SegoeUI, &amp;quot;Segoe UI&amp;quot;, &amp;quot;Helvetica Neue&amp;quot;, Helvetica, &amp;quot;Microsoft YaHei&amp;quot;, &amp;quot;Meiryo UI&amp;quot;, Meiryo, &amp;quot;Arial Unicode MS&amp;quot;, sans-serif; font-size: 14px; text-align: left; background-color: rgb(243, 243, 243);&quot;&gt;The provided PL/SQL code snippet attempts to call the&amp;nbsp;&lt;/span&gt;&lt;code style=&quot;white-space-collapse: preserve; font-size: 14px; line-height: var(--cib-type-body1-line-height); font-variation-settings: var(--cib-type-body1-font-variation-settings); margin: 0px 2px; padding: 1px 4px; box-sizing: border-box; border: 1px solid var(--cib-color-stroke-neutral-primary); border-radius: var(--cib-border-radius-medium); background: var(--cib-color-syntax-background-surface); color: rgba(0, 0, 0, 0.894); text-align: left;&quot;&gt;GE_IFACE_SPM_DETAILS.GE_IFACE_SPM_UPDATE&lt;/code&gt;&lt;span style=&quot;color: rgba(0, 0, 0, 0.894); font-family: SegoeUIVariable, SegoeUI, &amp;quot;Segoe UI&amp;quot;, &amp;quot;Helvetica Neue&amp;quot;, Helvetica, &amp;quot;Microsoft YaHei&amp;quot;, &amp;quot;Meiryo UI&amp;quot;, Meiryo, &amp;quot;Arial Unicode MS&amp;quot;, sans-serif; font-size: 14px; text-align: left; background-color: rgb(243, 243, 243);&quot;&gt;&amp;nbsp;procedure with specific parameters. If an exception occurs, it sets various variables (&lt;/span&gt;&lt;code style=&quot;white-space-collapse: preserve; font-size: 14px; line-height: var(--cib-type-body1-line-height); font-variation-settings: var(--cib-type-body1-font-variation-settings); margin: 0px 2px; padding: 1px 4px; box-sizing: border-box; border: 1px solid var(--cib-color-stroke-neutral-primary); border-radius: var(--cib-border-radius-medium); background: var(--cib-color-syntax-background-surface); color: rgba(0, 0, 0, 0.894); text-align: left;&quot;&gt;p_status&lt;/code&gt;&lt;span style=&quot;color: rgba(0, 0, 0, 0.894); font-family: SegoeUIVariable, SegoeUI, &amp;quot;Segoe UI&amp;quot;, &amp;quot;Helvetica Neue&amp;quot;, Helvetica, &amp;quot;Microsoft YaHei&amp;quot;, &amp;quot;Meiryo UI&amp;quot;, Meiryo, &amp;quot;Arial Unicode MS&amp;quot;, sans-serif; font-size: 14px; text-align: left; background-color: rgb(243, 243, 243);&quot;&gt;,&amp;nbsp;&lt;/span&gt;&lt;code style=&quot;white-space-collapse: preserve; font-size: 14px; line-height: var(--cib-type-body1-line-height); font-variation-settings: var(--cib-type-body1-font-variation-settings); margin: 0px 2px; padding: 1px 4px; box-sizing: border-box; border: 1px solid var(--cib-color-stroke-neutral-primary); border-radius: var(--cib-border-radius-medium); background: var(--cib-color-syntax-background-surface); color: rgba(0, 0, 0, 0.894); text-align: left;&quot;&gt;p_message&lt;/code&gt;&lt;span style=&quot;color: rgba(0, 0, 0, 0.894); font-family: SegoeUIVariable, SegoeUI, &amp;quot;Segoe UI&amp;quot;, &amp;quot;Helvetica Neue&amp;quot;, Helvetica, &amp;quot;Microsoft YaHei&amp;quot;, &amp;quot;Meiryo UI&amp;quot;, Meiryo, &amp;quot;Arial Unicode MS&amp;quot;, sans-serif; font-size: 14px; text-align: left; background-color: rgb(243, 243, 243);&quot;&gt;,&amp;nbsp;&lt;/span&gt;&lt;code style=&quot;white-space-collapse: preserve; font-size: 14px; line-height: var(--cib-type-body1-line-height); font-variation-settings: var(--cib-type-body1-font-variation-settings); margin: 0px 2px; padding: 1px 4px; box-sizing: border-box; border: 1px solid var(--cib-color-stroke-neutral-primary); border-radius: var(--cib-border-radius-medium); background: var(--cib-color-syntax-background-surface); color: rgba(0, 0, 0, 0.894); text-align: left;&quot;&gt;x_message&lt;/code&gt;&lt;span style=&quot;color: rgba(0, 0, 0, 0.894); font-family: SegoeUIVariable, SegoeUI, &amp;quot;Segoe UI&amp;quot;, &amp;quot;Helvetica Neue&amp;quot;, Helvetica, &amp;quot;Microsoft YaHei&amp;quot;, &amp;quot;Meiryo UI&amp;quot;, Meiryo, &amp;quot;Arial Unicode MS&amp;quot;, sans-serif; font-size: 14px; text-align: left; background-color: rgb(243, 243, 243);&quot;&gt;, and&amp;nbsp;&lt;/span&gt;&lt;code style=&quot;white-space-collapse: preserve; font-size: 14px; line-height: var(--cib-type-body1-line-height); font-variation-settings: var(--cib-type-body1-font-variation-settings); margin: 0px 2px; padding: 1px 4px; box-sizing: border-box; border: 1px solid var(--cib-color-stroke-neutral-primary); border-radius: var(--cib-border-radius-medium); background: var(--cib-color-syntax-background-surface); color: rgba(0, 0, 0, 0.894); text-align: left;&quot;&gt;v_debug_message&lt;/code&gt;&lt;span style=&quot;color: rgba(0, 0, 0, 0.894); font-family: SegoeUIVariable, SegoeUI, &amp;quot;Segoe UI&amp;quot;, &amp;quot;Helvetica Neue&amp;quot;, Helvetica, &amp;quot;Microsoft YaHei&amp;quot;, &amp;quot;Meiryo UI&amp;quot;, Meiryo, &amp;quot;Arial Unicode MS&amp;quot;, sans-serif; font-size: 14px; text-align: left; background-color: rgb(243, 243, 243);&quot;&gt;) accordingly.&lt;/span&gt;" style="rounded=1;whiteSpace=wrap;html=1;" vertex="1" parent="WIyWlLk6GJQsqaUBKTNV-1">
          <mxGeometry x="230.24" y="1970" width="428.12" height="100" as="geometry" />
        </mxCell>
        <mxCell id="ynSScAyT_oTB8Sbhrg9Q-34" value="line 153" style="text;html=1;align=center;verticalAlign=middle;resizable=0;points=[];autosize=1;strokeColor=none;fillColor=none;" vertex="1" parent="WIyWlLk6GJQsqaUBKTNV-1">
          <mxGeometry x="645" y="2088" width="70" height="30" as="geometry" />
        </mxCell>
      </root>
    </mxGraphModel>
  </diagram>
</mxfile>
